<svg width="915" height="1247" viewBox="0 0 915 1247" fill="none" xmlns="http://www.w3.org/2000/svg">
<path d="M395.291 1214L257.819 997.5C212.937 935.5 166.091 822.6 337.766 867C484.435 904.933 653.831 1009.07 749.921 1077.26C773.266 1093.83 806.036 1088.62 822.391 1065.13V1065.13C837.169 1043.9 833.561 1014.88 813.726 998.279C560.436 786.25 119.556 422.932 105.499 411C95.6229 402.617 -37.1429 234.5 202.698 301.5C394.57 355.1 576.905 476.833 644.089 531L745.074 601.5L787.716 627.361C815.162 644.006 850.619 626.607 854.246 594.713V594.713C855.96 579.649 849.839 564.766 837.891 555.434C607.887 375.769 272.785 171.212 202.698 27" stroke="url(#paint0_linear_409_1072)" stroke-width="120"/>
<defs>
<linearGradient id="paint0_linear_409_1072" x1="449.421" y1="-323.5" x2="449.421" y2="1170.5" gradientUnits="userSpaceOnUse">
<stop offset="0.269897" stop-color="#4949E9"/>
<stop offset="0.59951" stop-color="#ABC3FF"/>
<stop offset="0.92532" stop-color="#4949E9"/>
</linearGradient>
</defs>
</svg>
